<svg width="392" height="354" viewBox="0 0 392 354" fill="none" xmlns="http://www.w3.org/2000/svg">
<path d="M58.917 0.75C49.7383 0.75 41.7912 7.12496 39.7999 16.0851L0.63327 192.336C0.323461 193.73 0.166992 195.154 0.166992 196.583V333.667C0.166992 344.483 8.93484 353.25 19.7503 353.25H372.25C383.066 353.25 391.834 344.483 391.834 333.667V196.583C391.834 195.154 391.677 193.73 391.368 192.336L352.201 16.0851C350.209 7.12496 342.262 0.75 333.084 0.75H58.917ZM347.838 177H254.75C254.75 209.448 228.448 235.75 196 235.75C163.553 235.75 137.25 209.448 137.25 177H44.1633L74.6261 39.9167H317.374L347.838 177Z" fill="#E8F2FF"/>
</svg>
