<svg width="141" height="25" viewBox="0 0 141 25" fill="none" xmlns="http://www.w3.org/2000/svg">
<path d="M14.1093 12.4909L7.4082 5.58862H11.1371L18.0003 12.4909L11.1371 19.5602H7.4082L14.1093 12.4909Z" fill="#255690"/>
<path fill-rule="evenodd" clip-rule="evenodd" d="M25.1103 0H0.5V25H25.1103V0ZM22.2281 2.91479H3.27148V22.0852H22.2281V2.91479Z" fill="#255690"/>
<path d="M38.17 4.53155C39.8766 4.53155 41.2564 5.06377 42.2983 6.1201C43.3436 7.18048 43.8665 8.58508 43.8665 10.3376C43.8665 11.5381 43.6033 12.5945 43.077 13.4948C42.5471 14.3991 41.836 15.0794 40.9399 15.5355C40.0439 15.9917 39.034 16.2198 37.9102 16.2198H35.0123V20.6173H31.8154V4.5315L38.17 4.53155ZM35.0123 13.0307H37.9102C38.7566 13.0307 39.425 12.7945 39.9159 12.3184C40.4029 11.8421 40.6483 11.1939 40.6483 10.3697C40.6483 9.54943 40.4279 8.90918 39.9833 8.44493C39.5389 7.97679 38.8917 7.74481 38.0454 7.74481H35.0123L35.0123 13.0307ZM57.3364 9.02517C56.2947 8.00079 55.0004 7.48868 53.4607 7.48868C52.0774 7.48868 50.9715 7.96088 50.1359 8.90512C49.3039 9.85356 48.8879 11.0739 48.8879 12.5745C48.8879 14.091 49.3075 15.3195 50.1465 16.2558C50.9858 17.1961 52.0774 17.6643 53.418 17.6643C55.0431 17.6643 56.4297 17.0521 57.5748 15.8356L59.3883 18.3566C57.7491 20.0892 55.7008 20.9575 53.2402 20.9575C51.7681 20.9575 50.4631 20.6173 49.3252 19.937C48.1837 19.2569 47.2982 18.2846 46.6618 17.0201C46.0253 15.7516 45.7089 14.287 45.7089 12.6225C45.7089 11.4661 45.8936 10.3736 46.2599 9.3533C46.6298 8.32893 47.1454 7.43661 47.814 6.67241C48.4789 5.91212 49.3109 5.30788 50.3102 4.85969C51.3058 4.41555 52.3974 4.19153 53.585 4.19153C55.7791 4.19153 57.621 4.93171 59.1074 6.40833L57.3364 9.02517ZM64.5163 4.77164V10.8939L66.0701 10.7058L70.1025 4.77164H74.0495L68.737 12.2863L74.5615 20.8574H70.444L66.0914 13.9869H64.5163V20.8574H61.3622V4.77158L64.5163 4.77164ZM91.0465 4.53156V7.76883H83.5153V10.2656H86.7972C88.4934 10.2656 89.8482 10.7018 90.8652 11.5781C91.8821 12.4545 92.3907 13.731 92.3907 15.4115C92.3907 17.0441 91.8751 18.3206 90.8402 19.2408C89.8056 20.1572 88.4579 20.6174 86.7972 20.6174H80.3398V4.53153L91.0465 4.53156ZM83.5153 17.4042H86.7972C87.5833 17.4042 88.1734 17.2281 88.5753 16.8761C88.9735 16.5278 89.1726 16.0356 89.1726 15.4115C89.1726 14.7793 88.9735 14.287 88.5753 13.9429C88.1734 13.5948 87.6115 13.4188 86.8827 13.4188H83.5153V17.4042ZM103.08 4.51164L108.986 20.6174H105.445L104.364 17.4283H98.237L97.1738 20.6174H93.6962L99.5597 4.51164H103.08ZM99.2789 14.251H103.311L101.412 8.13287H101.206L99.2789 14.251ZM114.484 4.5316V10.8178H120.736V4.5316H123.954V20.6174H120.736V14.1591H114.484V20.6174H111.266V4.5316H114.484ZM130.454 4.5316V10.6538L132.008 10.4658L136.041 4.5316H139.988L134.675 12.0463L140.5 20.6174H136.382L132.029 13.7469H130.454V20.6174H127.3V4.53154L130.454 4.5316Z" fill="#255690"/>
</svg>
