<svg width="20" height="20" viewBox="0 0 20 20" fill="none" xmlns="http://www.w3.org/2000/svg">
<g id="zondicons:notification">
<path id="Vector" d="M4 7.99999C3.99945 6.75335 4.38723 5.53749 5.10945 4.52137C5.83167 3.50524 6.85247 2.73931 8.03 2.32999C7.9844 2.0443 8.00132 1.75212 8.0796 1.47361C8.15788 1.19509 8.29565 0.936874 8.48341 0.716771C8.67117 0.496669 8.90444 0.31992 9.16714 0.19872C9.42983 0.0775204 9.71569 0.0147552 10.005 0.0147552C10.2943 0.0147552 10.5802 0.0775204 10.8429 0.19872C11.1056 0.31992 11.3388 0.496669 11.5266 0.716771C11.7143 0.936874 11.8521 1.19509 11.9304 1.47361C12.0087 1.75212 12.0256 2.0443 11.98 2.32999C13.1557 2.74098 14.1743 3.50764 14.8946 4.52362C15.615 5.5396 16.0013 6.75456 16 7.99999V14L19 16V17H1V16L4 14V7.99999ZM12 18C12 18.5304 11.7893 19.0391 11.4142 19.4142C11.0391 19.7893 10.5304 20 10 20C9.46957 20 8.96086 19.7893 8.58579 19.4142C8.21071 19.0391 8 18.5304 8 18H12Z" fill="#0F4F8D"/>
</g>
</svg>
