<svg width="19" height="18" viewBox="0 0 19 18" fill="none" xmlns="http://www.w3.org/2000/svg">
<path id="Vector" d="M13.6179 0.442457C13.9014 0.159146 14.2858 0 14.6866 0C15.0874 0 15.4718 0.159146 15.7553 0.442457L17.9895 2.67666C18.2728 2.96017 18.432 3.34457 18.432 3.74538C18.432 4.14618 18.2728 4.53058 17.9895 4.81409L15.5765 7.22713L15.5661 7.23837L6.21115 16.1674C6.04019 16.3307 5.83337 16.4517 5.60725 16.5208L0.835595 17.9722C0.723405 18.0062 0.604077 18.0091 0.490391 17.9805C0.376705 17.9518 0.272942 17.8928 0.190217 17.8098C0.107152 17.7271 0.0481546 17.6233 0.0195427 17.5096C-0.00906912 17.3959 -0.00621736 17.2766 0.0277926 17.1644L1.4732 12.4126C1.549 12.1639 1.68767 11.9389 1.8758 11.7595L11.21 2.84945L13.6179 0.442457ZM2.77087 12.6969C2.74415 12.7227 2.72426 12.7548 2.71298 12.7902L1.62094 16.3791L5.2297 15.281C5.26206 15.2709 5.29163 15.2535 5.31609 15.23L14.1916 6.75801L11.6515 4.21883L2.77087 12.6969ZM15.1186 5.85344L17.0737 3.89916C17.0938 3.8791 17.1098 3.85526 17.1207 3.82902C17.1316 3.80278 17.1372 3.77465 17.1372 3.74624C17.1372 3.71783 17.1316 3.6897 17.1207 3.66346C17.1098 3.63722 17.0938 3.61338 17.0737 3.59332L14.8395 1.35912C14.8195 1.339 14.7956 1.32305 14.7694 1.31216C14.7431 1.30127 14.715 1.29566 14.6866 1.29566C14.6582 1.29566 14.6301 1.30127 14.6038 1.31216C14.5776 1.32305 14.5537 1.339 14.5337 1.35912L12.5794 3.3134L15.1186 5.85344Z" fill="#0F4F8D"/>
</svg>
